<?xml version="1.0" standalone="no"?>
<!DOCTYPE svg PUBLIC "-//W3C//DTD SVG 20010904//EN"
 "http://www.w3.org/TR/2001/REC-SVG-20010904/DTD/svg10.dtd">
<svg version="1.0" xmlns="http://www.w3.org/2000/svg"
 width="500.000000pt" height="500.000000pt" viewBox="0 0 500.000000 500.000000"
 preserveAspectRatio="xMidYMid meet">

<g transform="translate(0.000000,500.000000) scale(0.100000,-0.100000)"
fill="#000000" stroke="none">
<path d="M1380 2930 c0 -5 -11 -10 -24 -10 -14 0 -28 -4 -31 -10 -3 -5 -15
-10 -26 -10 -11 0 -17 -4 -14 -10 3 -5 20 -10 36 -10 17 0 28 -4 25 -9 -3 -5
2 -12 11 -15 15 -6 15 -8 3 -16 -10 -7 -11 -10 -2 -10 6 0 12 -6 12 -14 0 -8
6 -16 13 -19 8 -3 5 -10 -10 -21 -24 -18 -21 -46 4 -46 12 0 12 -2 -1 -16 -20
-20 -20 -31 1 -42 14 -9 15 -12 2 -24 -8 -8 -23 -17 -34 -22 -16 -6 -17 -9 -5
-16 11 -7 8 -10 -12 -10 -16 0 -28 -4 -28 -10 0 -5 11 -10 25 -10 29 0 57 -45
48 -78 -3 -13 -1 -22 6 -22 29 0 0 -44 -35 -53 -16 -4 -15 -5 4 -6 19 -1 22
-5 17 -21 -4 -11 -2 -20 4 -20 19 0 12 -30 -6 -31 -15 0 -15 -2 2 -9 18 -7 19
-8 3 -15 -37 -15 -4 -25 81 -25 102 0 143 15 148 55 2 14 -1 25 -6 25 -13 0
-5 64 9 68 13 5 13 32 0 32 -5 0 -10 5 -10 10 0 6 9 10 21 10 11 0 18 -4 14
-9 -3 -5 2 -16 10 -24 8 -9 15 -20 15 -26 0 -6 9 -11 21 -11 11 0 18 -4 15 -9
-4 -5 -2 -21 3 -35 9 -21 17 -25 61 -28 54 -3 68 -17 33 -33 -13 -5 -23 -13
-23 -17 0 -13 151 -9 187 4 27 10 38 10 53 0 12 -7 57 -12 113 -12 l94 0 32
40 32 40 104 0 c63 0 105 -4 105 -10 0 -5 -6 -10 -12 -10 -10 0 -10 -2 -1 -8
6 -4 11 -16 10 -27 -2 -19 5 -20 101 -23 l102 -3 12 28 c7 15 16 31 21 34 9 6
-13 27 -47 44 -11 6 -21 17 -21 25 0 8 -3 17 -7 20 -3 3 -10 18 -13 33 -6 23
-4 29 14 34 29 8 26 23 -5 23 -19 0 -25 4 -20 15 3 8 2 15 -2 15 -4 0 -8 12
-9 26 0 15 -5 29 -10 33 -16 12 -36 60 -30 75 5 13 -3 16 -52 16 -50 0 -59 3
-64 20 -3 13 0 20 9 20 8 0 14 5 14 10 0 6 18 10 40 10 38 0 39 1 28 20 -7 11
-18 20 -23 20 -6 0 -10 12 -10 28 1 20 7 28 23 30 24 4 30 22 7 22 -8 0 -19 9
-25 20 -10 18 -21 20 -134 20 -103 0 -126 -3 -137 -17 -11 -13 -11 -17 -1 -20
25 -9 11 -23 -23 -23 -28 0 -35 -4 -35 -20 0 -11 -5 -20 -11 -20 -6 0 -8 -9
-4 -20 4 -13 2 -20 -7 -20 -10 0 -9 -3 2 -10 11 -7 6 -10 -21 -10 -75 0 -122
-51 -54 -58 44 -5 56 -29 29 -56 -8 -9 -11 -16 -5 -16 6 0 4 -12 -4 -27 -9
-17 -11 -29 -5 -31 17 -6 11 -20 -10 -27 -25 -8 -26 -25 -2 -25 13 0 10 -5
-10 -17 -36 -22 -66 -99 -49 -125 17 -27 5 -38 -39 -38 -47 0 -57 13 -36 45
14 21 14 24 -2 30 -13 5 -14 8 -3 14 10 6 10 10 2 16 -9 5 -9 11 -1 19 18 23
0 76 -34 97 l-31 19 40 1 c23 1 30 4 18 6 -23 4 -33 23 -12 23 10 0 39 24 39
33 0 3 -9 7 -20 10 -23 6 -27 27 -6 27 21 0 27 27 10 44 -13 14 -12 18 5 35
20 20 20 20 -1 27 -20 6 -20 7 8 19 l29 13 -30 2 -30 1 23 19 c20 17 21 19 5
23 -14 4 -13 5 5 6 12 0 22 7 22 15 0 20 -77 36 -177 36 -88 -1 -88 -1 -58
-18 l30 -17 -30 -3 c-33 -4 -60 -22 -32 -22 9 0 17 -4 17 -10 0 -5 -4 -10 -10
-10 -5 0 -10 -4 -10 -10 0 -5 8 -10 17 -10 15 0 14 -2 -3 -14 -17 -13 -18 -15
-2 -21 16 -6 16 -9 1 -31 -8 -13 -12 -24 -7 -24 4 0 3 -5 -2 -10 -8 -8 -19 -7
-38 1 -25 12 -25 14 -11 36 14 20 14 23 1 23 -9 0 -25 14 -38 30 -12 17 -28
30 -35 30 -8 0 -11 5 -8 10 4 6 -10 10 -34 10 -22 0 -43 5 -46 10 -3 6 1 10 9
10 9 0 16 5 16 10 0 6 12 10 28 10 21 0 24 2 12 10 -20 13 -200 13 -200 0z
m980 -220 c0 -5 -7 -10 -16 -10 -8 0 -12 5 -9 10 3 6 10 10 16 10 5 0 9 -4 9
-10z m14 -72 c9 -17 16 -39 16 -48 0 -25 -36 -31 -61 -11 -17 14 -20 23 -13
42 4 13 9 27 10 32 1 4 2 9 3 12 4 17 32 0 45 -27z"/>
<path d="M2708 2923 c-43 -18 -49 -33 -13 -33 18 0 23 -4 19 -15 -4 -8 -14
-15 -24 -15 -28 0 -51 -11 -44 -21 3 -5 21 -9 40 -9 19 0 34 -4 34 -10 0 -5 5
-10 11 -10 11 0 48 -39 49 -52 0 -3 -8 -9 -17 -11 -15 -4 -15 -5 2 -6 17 -1
18 -3 5 -11 -11 -7 -7 -10 18 -10 26 0 33 -4 30 -17 -1 -10 2 -25 7 -33 9 -15
11 -20 14 -40 0 -5 8 -10 16 -10 21 0 19 -18 -2 -23 -17 -4 -17 -5 0 -6 9 0
17 -7 17 -15 0 -8 8 -17 18 -21 16 -7 15 -8 -3 -15 -16 -7 -11 -9 19 -9 l39
-1 -24 -20 c-20 -18 -21 -24 -11 -40 11 -19 9 -20 -38 -20 -27 0 -50 -4 -50
-10 0 -5 21 -10 48 -10 34 0 43 -3 32 -10 -10 -7 -11 -13 -5 -17 6 -5 12 -18
12 -30 1 -19 -3 -23 -27 -23 -15 0 -30 -7 -34 -15 -4 -11 2 -15 24 -15 16 0
32 -4 35 -10 3 -6 52 -10 111 -10 63 0 104 4 104 10 0 6 -9 10 -20 10 -11 0
-20 7 -20 15 0 10 10 15 31 15 31 0 31 1 26 35 -4 23 -2 35 6 36 7 0 -4 7 -23
14 l-35 13 33 1 c32 1 44 15 20 24 -20 6 10 37 37 37 12 0 24 3 27 6 11 10 -4
44 -19 44 -10 0 -13 6 -9 16 3 9 6 18 6 20 0 2 7 4 16 4 11 0 15 6 11 20 -3
12 1 23 10 29 9 4 14 14 11 21 -5 17 37 60 60 61 12 0 10 3 -7 10 -18 7 -22
14 -17 32 3 12 6 30 6 40 0 12 8 17 30 17 17 0 30 5 30 10 0 6 -9 10 -20 10
-11 0 -20 2 -20 5 0 14 34 55 45 55 7 0 15 7 19 15 4 13 -9 15 -87 15 -105 0
-169 -9 -161 -21 3 -5 -2 -9 -10 -9 -9 0 -16 -5 -16 -11 0 -6 -10 -19 -22 -30
-20 -16 -20 -18 -5 -19 24 0 22 -20 -2 -20 -11 0 -23 -4 -26 -10 -3 -5 -2 -10
3 -10 6 0 8 -9 5 -20 -7 -27 -18 -25 -51 10 -21 21 -39 30 -61 30 -43 0 -36
24 7 28 39 4 45 32 7 32 -31 0 -31 6 -2 31 22 18 21 18 -83 18 -70 -1 -117 -6
-142 -16z"/>
<path d="M3394 2928 c-13 -20 -11 -60 3 -65 7 -3 13 -20 13 -39 0 -27 -4 -34
-19 -34 -11 0 -23 -4 -26 -10 -3 -5 3 -10 15 -10 12 0 28 -6 35 -14 12 -11 11
-17 -6 -35 -11 -11 -25 -21 -31 -21 -7 0 -2 -9 10 -20 29 -27 28 -40 -2 -40
-31 0 -42 -16 -16 -23 17 -4 19 -15 20 -93 1 -107 3 -132 14 -162 4 -14 3 -28
-3 -36 -18 -22 -1 -26 103 -26 115 0 152 14 140 53 -10 31 -13 69 -14 171 -1
78 -3 89 -20 93 -28 8 -14 23 21 23 35 0 36 6 4 36 -24 22 -24 23 -5 29 11 4
20 11 20 16 0 5 15 9 34 9 19 0 38 5 41 10 4 6 -10 10 -34 10 -23 0 -41 4 -41
9 0 5 -8 12 -17 14 -14 4 -13 5 4 6 16 1 20 6 16 20 -3 13 1 21 14 24 16 4 16
5 1 6 -10 0 -18 7 -18 15 0 8 -7 17 -16 20 -8 3 -13 10 -9 15 3 6 3 22 -1 36
-6 25 -7 25 -114 25 -74 0 -111 -4 -116 -12z"/>
<path d="M1120 2185 c0 -8 -9 -15 -20 -15 -11 0 -20 -7 -20 -15 0 -15 13 -19
62 -15 14 1 29 -3 33 -9 4 -7 -4 -11 -19 -11 -16 0 -26 -6 -26 -15 0 -8 -5
-15 -11 -15 -14 0 -39 -25 -39 -39 0 -6 8 -11 19 -11 10 0 21 -8 23 -18 7 -24
-14 -52 -38 -52 -21 0 -48 -35 -39 -50 4 -6 23 -11 43 -12 l37 -1 -32 -4 c-52
-7 -43 -33 11 -33 l45 0 -10 -30 c-8 -22 -17 -30 -36 -30 -14 0 -22 -4 -18
-11 4 -6 -2 -13 -14 -16 -12 -3 -21 -13 -21 -24 0 -11 -4 -19 -10 -19 -5 0
-10 -9 -10 -20 0 -18 7 -20 55 -20 30 0 55 -4 55 -9 0 -5 -4 -11 -9 -13 -5 -1
-11 -19 -13 -38 l-3 -35 116 0 c81 0 125 5 143 14 35 19 33 31 -6 31 -18 0
-28 4 -22 8 6 4 14 17 18 30 4 12 15 23 24 23 9 1 27 3 40 4 13 1 26 -4 29
-11 3 -8 17 -14 32 -14 31 0 73 -20 79 -37 2 -9 -7 -13 -25 -13 -40 0 -58 -13
-39 -29 17 -14 194 -10 263 6 33 8 43 7 47 -3 4 -11 31 -14 111 -14 58 0 105
4 105 9 0 5 12 23 26 40 24 29 30 31 90 29 73 -2 76 -3 89 -43 l10 -30 222 -2
c219 -3 222 -3 238 19 11 17 13 35 9 70 -6 41 -4 48 10 48 12 0 16 -5 12 -18
-8 -26 44 -62 88 -62 47 0 54 -16 10 -24 -29 -6 -33 -10 -24 -22 16 -18 201
-20 229 -2 15 9 25 9 46 0 37 -17 531 -17 541 0 13 21 13 162 1 170 -7 4 -58
8 -114 8 -78 0 -101 3 -98 13 3 7 19 18 36 26 18 8 35 25 40 40 5 15 30 44 54
65 25 20 45 42 45 47 0 6 9 22 20 36 16 21 18 34 13 84 -5 51 -3 59 11 59 21
0 21 26 0 34 -9 3 -129 6 -267 6 -222 0 -253 -2 -269 -17 -16 -14 -21 -15 -27
-4 -6 10 -43 15 -124 19 -128 5 -157 1 -137 -23 10 -12 9 -15 -5 -15 -17 0
-17 -11 1 -72 4 -14 1 -16 -13 -11 -10 4 -23 12 -29 17 -38 36 -66 56 -79 56
-8 0 -15 5 -15 10 0 6 10 10 23 10 22 1 22 1 2 16 -16 13 -41 15 -129 12 -72
-3 -111 -9 -114 -16 -2 -7 -17 -12 -33 -12 -18 0 -29 -5 -29 -14 0 -15 21 -26
49 -26 24 0 40 -55 35 -119 -3 -32 0 -59 7 -67 9 -11 7 -15 -7 -21 -22 -8 -54
-40 -54 -53 0 -5 7 -10 15 -10 8 0 15 -4 15 -10 0 -5 7 -10 15 -10 9 0 15 -9
15 -25 0 -18 -5 -25 -20 -25 -11 0 -20 -4 -20 -10 0 -5 14 -10 31 -10 27 0 30
-2 19 -15 -7 -8 -19 -15 -26 -15 -8 0 -14 -7 -14 -15 0 -8 -5 -15 -10 -15 -6
0 -10 6 -9 13 3 26 -2 37 -16 37 -22 0 -18 31 5 37 11 3 20 12 20 20 0 8 -9
17 -20 20 -11 3 -20 11 -20 19 0 7 -11 30 -25 50 -14 20 -25 50 -25 65 0 26
-4 29 -32 30 -18 1 -37 2 -43 4 -5 1 -16 3 -23 3 -28 4 15 31 52 34 l37 3 -26
35 -26 35 23 9 c13 6 24 11 26 12 6 3 -11 34 -20 34 -5 0 -16 7 -24 15 -12 12
-42 15 -135 15 l-120 0 -17 -30 c-11 -19 -25 -30 -39 -30 -13 0 -23 -4 -23
-10 0 -5 5 -10 10 -10 6 0 1 -9 -10 -20 -11 -11 -20 -24 -20 -30 0 -5 -11 -10
-25 -10 -14 0 -25 -4 -25 -10 0 -5 -9 -10 -21 -10 -16 0 -20 -5 -17 -27 2 -22
9 -29 32 -33 28 -5 50 -30 27 -30 -6 0 -11 -11 -11 -24 0 -33 -28 -96 -43 -97
-27 -3 -63 3 -71 12 -6 6 -6 9 2 9 7 0 12 11 12 25 0 14 5 25 10 25 15 0 12
27 -4 33 -15 6 -10 57 5 57 15 0 10 30 -6 36 -22 9 -19 44 4 44 10 0 21 9 24
20 3 13 10 18 21 14 20 -8 30 17 22 51 -6 22 -12 25 -51 25 -24 0 -47 5 -50
10 -10 17 -181 13 -199 -5 -8 -8 -21 -15 -29 -15 -8 0 -17 -7 -21 -15 -3 -9 0
-15 9 -15 25 0 25 -17 -2 -44 -29 -30 -87 -36 -97 -11 -3 8 -1 15 5 15 6 0 7
5 4 10 -4 6 5 10 19 10 28 0 29 3 17 35 -7 16 -24 22 -102 32 -139 18 -259 17
-259 -2z m630 -5 c13 -8 12 -10 -2 -10 -26 0 -22 -28 4 -32 13 -2 24 -11 26
-20 5 -27 -22 -48 -62 -48 -20 0 -36 -4 -36 -10 0 -5 14 -10 30 -10 20 0 30
-5 30 -15 0 -8 -4 -15 -10 -15 -21 0 -10 -39 13 -43 12 -2 3 -5 -19 -6 -28 -1
-44 -6 -48 -17 -13 -34 -6 -44 32 -46 36 -1 36 -1 5 -5 -50 -6 -43 -33 8 -33
37 0 40 -2 28 -16 -10 -12 -10 -17 -1 -23 10 -6 -51 -7 -135 -2 -12 0 -24 10
-28 21 -9 27 -34 25 -44 -4 -8 -21 -16 -23 -73 -25 -52 -1 -70 3 -90 19 -33
25 -35 25 -42 -4 -6 -23 -9 -24 -68 -19 -35 2 -69 6 -75 8 -15 5 -18 75 -3 75
6 0 10 7 10 15 0 8 -7 15 -15 15 -9 0 -15 9 -15 25 0 22 4 25 35 25 28 0 35 4
35 19 0 13 -9 20 -30 25 -17 3 -30 12 -30 20 0 8 -12 16 -27 19 -26 4 -26 4 5
6 17 0 32 6 32 12 0 17 32 38 58 39 12 0 22 6 22 13 0 8 17 11 60 9 33 -2 60
-8 60 -13 0 -5 -7 -9 -15 -9 -8 0 -15 -5 -15 -11 0 -6 -7 -17 -15 -25 -20 -21
-8 -44 25 -44 27 0 43 -18 44 -49 1 -24 54 -32 74 -12 9 10 26 21 37 25 15 5
16 9 6 15 -21 13 -4 51 23 51 13 0 31 9 40 19 10 11 30 21 44 23 18 2 28 12
35 33 15 44 43 57 77 35z m511 0 c25 -14 25 -40 -1 -40 -11 0 -20 -4 -20 -10
0 -5 6 -10 13 -10 7 0 12 -13 12 -30 0 -22 -5 -30 -17 -30 -10 0 -18 -4 -18
-10 0 -5 -7 -10 -16 -10 -8 0 -12 -5 -8 -11 3 -6 1 -15 -6 -19 -25 -15 2 -30
57 -30 45 0 54 -3 49 -15 -7 -20 3 -45 20 -45 12 0 34 -56 34 -87 0 -7 5 -13
11 -13 5 0 7 -4 4 -10 -8 -13 13 -90 30 -107 7 -7 21 -13 29 -13 9 0 16 -4 16
-10 0 -5 -5 -10 -10 -10 -6 0 -8 -11 -4 -25 l6 -25 -87 0 -87 0 7 29 c4 18 2
32 -5 36 -7 4 -56 7 -111 7 -103 0 -113 -4 -138 -50 -11 -20 -19 -22 -96 -22
-90 0 -99 6 -65 42 22 24 26 48 9 48 -8 0 -8 5 1 15 7 8 10 21 7 28 -7 17 14
44 38 48 17 4 20 13 20 64 1 33 6 70 13 82 20 37 1 60 -45 54 -7 -1 -13 2 -13
7 0 18 25 31 65 34 38 3 40 5 45 43 4 34 9 40 32 43 27 3 48 34 27 41 -8 2 -7
6 2 12 20 12 176 11 200 -1z m344 0 l30 -8 -30 -1 -30 -2 24 -19 c13 -11 35
-20 50 -20 32 0 91 -58 91 -88 0 -12 9 -26 20 -32 11 -6 19 -14 16 -18 -2 -4
2 -16 9 -26 13 -18 15 -18 43 3 17 12 35 21 41 21 6 0 11 5 11 10 0 6 -6 10
-14 10 -19 0 -28 28 -11 37 7 5 17 20 20 36 6 24 4 27 -16 28 -16 0 -19 3 -9
6 20 8 30 24 30 51 0 20 5 22 48 22 45 -1 121 -29 79 -30 -15 0 -17 -5 -12
-30 9 -39 9 -113 0 -139 -3 -12 -13 -21 -21 -21 -8 0 -14 -7 -14 -15 0 -9 9
-15 25 -15 14 0 25 -4 25 -10 0 -5 -7 -10 -15 -10 -8 0 -15 -4 -15 -10 0 -5
-7 -10 -15 -10 -27 0 -16 -38 15 -52 34 -15 37 -24 14 -56 -8 -12 -10 -22 -5
-22 14 0 14 -43 1 -56 -5 -5 -7 -19 -4 -32 5 -18 13 -22 45 -22 55 0 48 -13
-14 -28 -72 -17 -111 -16 -104 2 9 23 -26 46 -72 46 l-41 0 3 36 c4 30 1 37
-19 44 -14 6 -24 18 -24 30 0 11 -6 20 -14 20 -7 0 -16 9 -19 20 -3 12 -14 20
-26 20 -17 0 -21 -6 -21 -30 0 -23 -4 -30 -20 -30 -11 0 -20 -4 -20 -10 0 -5
11 -10 25 -10 18 0 23 -4 19 -15 -4 -8 -15 -15 -25 -15 -10 0 -19 -7 -19 -15
0 -8 6 -15 14 -15 7 0 16 -9 19 -20 3 -11 1 -20 -3 -20 -5 0 -10 -10 -12 -22
-3 -21 -9 -23 -69 -26 l-67 -3 -7 57 c-5 41 -3 59 6 64 6 5 9 15 6 24 -4 10
-1 16 8 16 8 0 15 7 15 15 0 8 -6 15 -13 15 -20 0 -40 49 -27 65 6 7 8 20 4
29 -3 9 -1 16 5 16 15 0 14 37 -1 43 -18 8 10 27 40 27 12 0 22 5 22 10 0 6
-12 10 -27 10 -30 0 -64 19 -48 26 35 15 40 23 27 41 -7 10 -17 30 -23 46 -6
15 -17 27 -25 27 -8 0 -14 5 -14 10 0 6 11 10 24 10 14 0 28 5 31 10 7 11 36
11 80 0z m984 -12 c5 -14 5 -26 -1 -29 -6 -4 -5 -22 2 -49 11 -41 10 -44 -19
-74 -17 -18 -31 -36 -31 -42 0 -5 -22 -30 -50 -54 -27 -24 -50 -49 -51 -55 0
-5 -19 -23 -41 -40 -70 -51 -65 -55 81 -55 l131 0 0 -44 c0 -24 -3 -58 -6 -75
l-6 -31 -243 0 -243 0 3 76 c2 62 6 79 26 100 12 13 27 24 33 24 14 0 56 41
56 56 0 7 18 27 40 44 41 32 76 76 82 100 2 11 -18 14 -107 15 -108 0 -109 0
-116 25 -13 46 -10 100 5 100 8 0 16 7 20 15 4 13 38 15 216 15 209 0 211 0
219 -22z m-511 -37 c-7 -12 -19 -21 -26 -21 -8 0 -4 9 10 24 27 28 35 26 16
-3z m18 -67 c4 -19 12 -38 18 -40 6 -2 49 -6 96 -8 47 -2 86 -8 88 -14 4 -12
-150 -172 -166 -172 -25 0 -49 -54 -44 -102 4 -48 4 -48 -27 -48 -37 0 -37 3
-9 42 20 28 20 31 4 40 -14 8 -15 12 -4 25 10 12 10 17 1 20 -7 2 -9 11 -6 19
3 8 -3 21 -13 29 -18 14 -18 14 0 15 14 0 17 5 12 24 -3 14 -2 28 4 31 16 10
12 35 -6 35 -14 0 -14 3 -4 15 7 8 19 15 26 15 8 0 14 5 14 10 0 6 -6 10 -14
10 -17 0 -31 31 -18 39 5 3 12 16 16 29 11 33 24 27 32 -14z m-1673 -1 c-7 -2
-19 -2 -25 0 -7 3 -2 5 12 5 14 0 19 -2 13 -5z m1377 -33 c0 -5 -4 -10 -10
-10 -5 0 -10 5 -10 10 0 6 5 10 10 10 6 0 10 -4 10 -10z m-1520 -240 c0 -5 -9
-10 -20 -10 -12 0 -20 -7 -20 -17 0 -15 -8 -17 -50 -15 -54 4 -57 6 -37 27 21
20 127 33 127 15z m450 0 c12 -8 9 -10 -13 -10 -16 0 -26 4 -22 10 8 12 16 12
35 0z m-247 -7 c-7 -2 -21 -2 -30 0 -10 3 -4 5 12 5 17 0 24 -2 18 -5z m197
-18 c0 -11 -12 -15 -45 -15 -38 0 -45 -3 -45 -20 0 -16 5 -19 25 -16 14 3 31
-1 38 -8 7 -7 30 -16 52 -20 71 -14 86 -40 28 -50 -104 -18 -123 -19 -117 -2
3 9 1 16 -5 16 -6 0 -11 7 -11 15 0 9 -11 21 -25 27 -14 6 -25 19 -25 30 0 10
-7 18 -15 18 -8 0 -15 4 -15 9 0 9 34 16 120 24 19 2 36 5 38 5 1 1 2 -5 2
-13z m155 -7 c-12 -40 -12 -63 -1 -70 8 -5 6 -13 -6 -24 -15 -15 -19 -14 -52
19 -20 20 -36 41 -36 46 0 5 -6 11 -12 14 -22 7 -4 16 53 26 30 5 56 9 58 10
2 0 0 -9 -4 -21z m-609 -51 c4 -4 29 -7 56 -7 45 0 61 -11 38 -25 -5 -3 -10
-17 -10 -31 0 -23 -3 -24 -55 -24 -42 0 -55 3 -55 15 0 9 -9 15 -25 15 -23 0
-24 2 -14 27 14 38 44 52 65 30z"/>
<path d="M2117 2003 c-14 -4 -18 -12 -14 -29 2 -13 1 -25 -3 -26 -4 -2 -11
-27 -15 -55 l-7 -53 60 0 c72 0 78 9 45 67 -14 23 -22 47 -18 53 9 15 -4 50
-18 49 -7 -1 -20 -3 -30 -6z m37 -99 c10 -26 7 -44 -8 -44 -8 0 -17 9 -21 20
-11 34 16 57 29 24z"/>
<path d="M3687 2193 c-10 -9 -9 -83 1 -83 4 0 7 -11 7 -25 0 -19 -5 -25 -22
-25 -16 0 -23 -6 -23 -20 0 -11 3 -19 8 -19 40 7 59 -18 22 -28 -23 -6 -27
-43 -5 -43 8 0 15 -4 15 -10 0 -5 -9 -10 -20 -10 -25 0 -27 -36 -2 -44 15 -5
17 -18 14 -117 -2 -82 0 -114 9 -120 9 -5 5 -11 -14 -20 -45 -21 -12 -29 118
-29 128 0 145 5 145 46 0 12 6 24 13 27 22 8 40 -9 34 -32 -10 -38 10 -41 254
-39 l233 3 7 34 c8 38 2 64 -12 55 -5 -3 -9 0 -9 5 0 6 20 11 45 11 41 0 45 2
45 25 0 21 -5 25 -28 25 -15 0 -33 5 -40 12 -7 7 -53 14 -115 16 -94 4 -116
11 -117 35 0 4 9 7 20 7 11 0 25 9 32 20 10 16 24 20 65 20 38 0 53 4 53 14 0
13 -77 26 -156 26 -27 0 -34 4 -34 19 0 16 8 20 37 23 35 3 61 28 29 28 -9 0
-16 5 -16 10 0 6 -11 10 -25 10 -26 0 -29 10 -25 73 1 21 -4 30 -19 34 -24 6
-29 42 -6 44 35 3 38 4 42 14 9 27 -67 35 -309 35 -134 0 -248 -3 -251 -7z
m191 -14 c13 -8 17 -20 14 -40 -2 -16 0 -29 6 -29 5 0 9 -11 8 -25 -1 -17 -7
-25 -19 -25 -12 0 -17 -6 -15 -17 2 -10 11 -17 21 -17 21 2 23 -24 2 -32 -17
-7 -21 -44 -5 -44 6 0 10 -4 10 -10 0 -5 -9 -10 -20 -10 -26 0 -26 -24 1 -42
19 -12 21 -20 15 -62 -4 -26 -14 -50 -22 -53 -8 -3 -14 -13 -14 -23 0 -10 -5
-20 -11 -22 -19 -6 3 -39 25 -36 15 2 20 -2 18 -14 -1 -9 2 -19 8 -23 6 -4 5
-11 -4 -21 -10 -10 -38 -14 -95 -14 -81 0 -81 0 -75 24 3 13 1 26 -4 30 -5 3
-7 17 -4 31 2 15 0 25 -7 25 -7 0 -10 29 -8 90 2 78 4 90 20 90 19 0 23 20 6
37 -19 19 -2 41 33 45 50 5 51 36 1 41 l-38 4 43 1 c30 2 42 6 42 17 0 9 -9
15 -25 15 -16 0 -25 6 -25 15 0 8 -4 15 -10 15 -27 0 -52 54 -41 88 3 8 154 0
169 -9z m242 -25 c0 -8 4 -14 9 -14 4 0 6 -11 3 -25 -4 -23 -1 -25 32 -25 l36
0 0 -54 c0 -46 -3 -56 -20 -61 -11 -3 -20 -9 -20 -13 1 -24 15 -52 29 -56 9
-2 -22 -2 -69 0 -47 3 -91 7 -97 9 -22 7 -14 35 10 36 12 1 27 2 32 4 6 1 16
3 23 3 17 3 15 22 -3 22 -8 0 -15 5 -15 10 0 6 -11 10 -24 10 -23 0 -25 4 -28
53 -3 45 -6 52 -25 55 -26 4 -27 6 -13 33 6 10 20 19 31 19 11 0 27 6 35 14
17 18 74 2 74 -20z m-130 -74 c0 -5 -4 -10 -10 -10 -5 0 -10 5 -10 10 0 6 5
10 10 10 6 0 10 -4 10 -10z m-7 -47 c-7 -2 -21 -2 -30 0 -10 3 -4 5 12 5 17 0
24 -2 18 -5z m3 -46 c4 -4 -2 -7 -14 -7 -14 0 -22 -6 -23 -17 0 -11 -2 -13 -6
-5 -12 30 21 52 43 29z m4 -87 c0 -5 -7 -10 -15 -10 -18 0 -19 -13 -2 -41 10
-17 10 -23 0 -26 -7 -3 -13 -13 -13 -24 0 -12 -7 -19 -19 -19 -17 0 -19 8 -20
65 l0 65 34 0 c19 0 35 -4 35 -10z m193 -44 c21 -16 22 -36 2 -36 -9 0 -15 -9
-15 -25 0 -25 1 -25 80 -25 73 0 80 -2 80 -20 0 -11 -7 -20 -15 -20 -8 0 -15
-4 -15 -8 0 -14 47 -35 63 -29 8 3 23 0 33 -8 10 -7 23 -11 29 -9 20 7 37 -13
30 -35 -6 -21 -9 -21 -223 -19 l-217 3 3 29 c2 18 -3 33 -15 42 -16 12 -13 13
30 14 43 0 47 2 47 25 0 21 -5 25 -32 25 -28 1 -30 2 -15 11 13 8 17 18 13 35
-5 19 -3 24 14 24 11 0 25 9 32 20 15 23 64 27 91 6z"/>
</g>
</svg>
